<svg width="534" height="623" viewBox="0 0 534 623" fill="none" xmlns="http://www.w3.org/2000/svg">
<path fill-rule="evenodd" clip-rule="evenodd" d="M397.653 58.5246L389.187 63.7651C388.449 64.222 388 65.0282 388 65.8963C388 66.8739 388.568 67.7624 389.456 68.1721L393.614 70.091C394.203 70.363 394.818 70.5749 395.45 70.7235L400.452 71.9004C401.945 72.2517 403 73.584 403 75.1178V76.0954C403 76.9342 403.537 77.6789 404.333 77.9442C405.28 78.26 405.835 79.2409 405.619 80.2158L405.319 81.5631C405.115 82.4816 404.548 83.2783 403.746 83.7714L400.807 85.5802C399.373 86.463 397.584 86.5418 396.077 85.7885C395.058 85.279 393.893 85.1429 392.784 85.4038L388.589 86.3909C387.041 86.7551 385.433 86.0931 384.59 84.7448L383.973 83.756C383.679 83.2857 383.163 83 382.608 83C381.72 83 381 83.7201 381 84.6085V87.6667C381 89.1355 380.308 90.5187 379.133 91.4L374.093 95.1802C373.368 95.7242 372.72 96.3644 372.167 97.083L369.132 101.029C368.418 101.956 367.314 102.5 366.144 102.5C365.096 102.5 364.095 102.936 363.381 103.705L361.8 105.408C360.15 107.185 361.106 110.082 363.489 110.529L363.994 110.624C365.157 110.842 366 111.858 366 113.041V113.306C366 114.518 366.982 115.5 368.194 115.5C368.999 115.5 369.739 115.941 370.122 116.649L373.258 122.438C374.779 125.246 373.766 128.757 370.982 130.323L369.502 131.155C368.574 131.677 368 132.659 368 133.723C368 134.538 367.663 135.316 367.069 135.873L361.274 141.306C360.439 142.088 359.823 143.075 359.486 144.169L358.635 146.935C358.261 148.152 358.752 149.47 359.832 150.145C361.061 150.913 361.505 152.49 360.857 153.786L360.779 153.942C360.297 154.905 360.369 156.053 360.966 156.95L361.04 157.061C361.64 157.96 362.649 158.5 363.73 158.5H366H368.52C371.187 158.5 373.546 160.229 374.349 162.772L374.839 164.324C375.5 166.416 377.629 167.674 379.78 167.244C381.905 166.819 384.014 168.043 384.7 170.099L384.729 170.186C385.449 172.346 387.697 173.601 389.913 173.079L392.485 172.474C393.802 172.164 395.18 172.227 396.463 172.654L397.48 172.993C399.423 173.641 401.537 173.539 403.409 172.707C404.458 172.241 405.593 172 406.742 172H410.899C411.911 172 412.868 171.54 413.5 170.75L413.882 170.272C414.273 169.784 414.864 169.5 415.489 169.5C416.788 169.5 417.762 168.312 417.508 167.038L416.931 164.155C416.708 163.04 417.561 162 418.698 162H418.75C419.716 162 420.5 161.216 420.5 160.25C420.5 159.284 421.284 158.5 422.25 158.5H423.227C424.305 158.5 425.282 157.865 425.72 156.88L426.129 155.959C426.677 154.726 427.775 153.824 429.091 153.525L435.437 152.083C437.052 151.715 438.402 150.615 439.088 149.107C439.948 147.215 441.835 146 443.913 146H445.081C446.649 146 448.174 145.481 449.418 144.525L451.652 142.806C453.088 141.702 455.029 141.515 456.65 142.325L458.225 143.113C459.265 143.633 460.526 143.369 461.27 142.476C461.996 141.605 463.215 141.33 464.244 141.805L466.044 142.635C467.846 143.467 469 145.271 469 147.256V151.11C469 151.369 469.027 151.628 469.082 151.881L469.718 154.852C470.055 156.425 472.001 156.999 473.138 155.862C473.376 155.624 473.668 155.449 473.99 155.353L477.676 154.247C478.22 154.084 478.725 153.813 479.161 153.45C480.556 152.286 482.542 152.151 484.082 153.114L484.744 153.527C485.238 153.836 485.809 154 486.392 154H487C488.381 154 489.5 152.881 489.5 151.5V150.75C489.5 149.784 490.284 149 491.25 149C492.216 149 493 148.216 493 147.25V145.464C493 144.527 493.372 143.628 494.036 142.964L495.766 141.234C496.901 140.099 497.706 138.678 498.095 137.121L498.434 135.762C498.796 134.316 499.726 133.076 501.014 132.325L502.676 131.356C504.022 130.571 505.737 130.86 506.751 132.043C507.521 132.941 508.72 133.346 509.877 133.098L510.967 132.864C513.32 132.36 515 130.281 515 127.876V124.5V119.623C515 118.548 514.827 117.48 514.487 116.461L513.683 114.049C513.561 113.684 513.397 113.335 513.193 113.01L512.954 112.627C511.828 110.825 512.176 108.471 513.775 107.072C514.565 106.381 515.578 106 516.627 106H518.777C520.233 106 521.663 105.613 522.92 104.88L524.952 103.695C526.22 102.955 527 101.597 527 100.129C527 97.8484 525.152 96 522.871 96H522.12C521.393 96 520.685 95.7641 520.104 95.3278C519.397 94.7974 518.509 94.567 517.633 94.6864L511.174 95.5672C509.495 95.7961 508 94.491 508 92.7964C508 91.252 506.748 90 505.204 90H502.838C502.283 90 501.732 90.0895 501.205 90.2649L496.662 91.7792C496.224 91.9255 495.764 92 495.302 92H492.528C491.684 92 491 92.6841 491 93.5279V94.323C491 95.0934 490.189 95.5946 489.5 95.25C488.811 94.9054 488 95.4066 488 96.177V98.3115C488 99.244 487.244 100 486.312 100C485.799 100 485.313 99.7668 484.993 99.3663L484.456 98.6956C483.852 97.9399 482.937 97.5 481.969 97.5C480.762 97.5 479.659 96.8183 479.12 95.739L478.915 95.3292C478.642 94.7839 478.5 94.1826 478.5 93.573V92.7123C478.5 89.3311 480.741 86.3596 483.992 85.4307L484.702 85.2279C485.232 85.0767 485.779 85 486.33 85C488.31 85 490.16 84.0101 491.259 82.3621L492.461 80.5582C493.77 78.5954 494.271 76.2036 493.861 73.8804L493.245 70.3878C493.092 69.5218 492.513 68.7913 491.705 68.4449C490.458 67.9108 489.83 66.5107 490.258 65.2245L490.595 64.2136C490.849 63.4535 490.713 62.6175 490.232 61.9766C489.771 61.3618 489.048 61 488.279 61H485.794C483.221 61 480.927 59.3774 480.071 56.951L479.211 54.5141C478.793 53.3294 479.232 52.0121 480.277 51.3152C481.041 50.8059 481.5 49.9485 481.5 49.0303V48.3714C481.5 47.0617 482.562 46 483.871 46C484.853 46 485.732 46.6043 486.085 47.5201L487.062 50.0614C487.543 51.3118 489.059 51.7939 490.174 51.0507C490.697 50.7022 491.348 50.6072 491.949 50.792L492.884 51.0798C495.178 51.7855 497.5 50.0704 497.5 47.6706C497.5 46.6121 497.97 45.6082 498.783 44.9305L502.082 42.1814C504.766 39.945 508.519 39.5095 511.643 41.0717L512.754 41.6269C513.245 41.8723 513.786 42 514.334 42H514.659C516.045 42 517.262 41.0816 517.643 39.7494C517.871 38.9501 518.411 38.2758 519.141 37.8778L523.16 35.6857C523.386 35.5624 523.626 35.4684 523.876 35.406L525.333 35.0418C527.092 34.6019 527.632 32.3658 526.267 31.1713C525.78 30.7447 525.5 30.1284 525.5 29.4805V24.723C525.5 23.2072 523.94 22.1934 522.555 22.809C521.649 23.2116 520.585 22.924 520.005 22.1197L519.773 21.798C519.288 21.1245 518.508 20.7254 517.678 20.7254H516.621C514.897 20.7254 513.5 19.3282 513.5 17.6046C513.5 16.0963 514.579 14.8039 516.063 14.5341L518.681 14.058C518.889 14.0202 519.08 13.9201 519.229 13.7709C519.883 13.1174 519.42 12 518.496 12H516.757C515.787 12 515 11.2132 515 10.2426V10C515 8.89543 515.895 8 517 8H519.764C520.447 8 521 7.44659 521 6.76393C521 6.29574 520.735 5.86774 520.317 5.65836L518.253 4.62673C517.527 4.26334 517.162 3.43382 517.385 2.6525L517.422 2.52131C517.712 1.50835 516.948 0.5 515.895 0.5C515.34 0.5 514.825 0.79092 514.54 1.26638C514.012 2.14697 512.797 2.29658 512.07 1.57042L512.041 1.54059C511.451 0.951246 510.51 0.908538 509.869 1.4421L508.852 2.29025C508.301 2.74885 507.608 3 506.891 3H502C499.515 3 497.5 5.01472 497.5 7.5V8.75C497.5 10.5449 496.045 12 494.25 12H492.5C491.672 12 491 12.6716 491 13.5C491 14.3284 491.672 15 492.5 15H498.198C499.666 15 501.066 15.6131 502.061 16.6912L503.044 17.7565C504.819 19.6786 504.359 22.749 502.099 24.067C501.083 24.6601 499.86 24.7867 498.743 24.4145L497.437 23.9789C496.52 23.6733 495.518 23.7598 494.667 24.218L492.963 25.1351C491.398 25.9779 489.5 24.8442 489.5 23.0664C489.5 22.1178 488.93 21.2624 488.054 20.8976L484.638 19.4741C483.915 19.173 483.098 19.2012 482.398 19.5512L480.711 20.3944C479.695 20.9024 478.5 20.1637 478.5 19.0279C478.5 18.184 477.816 17.5 476.972 17.5H474.673C473.909 17.5 473.162 17.7289 472.529 18.1572L457.919 28.0401C457.075 28.611 455.958 28.5663 455.162 27.9298C454.454 27.363 453.48 27.2599 452.669 27.6657L451.301 28.3493C450.508 28.746 449.556 28.6451 448.864 28.091C448.059 27.4476 446.923 27.425 446.094 28.036L439.654 32.7816C438.639 33.5294 437.29 33.6452 436.163 33.0814L435.607 32.8033C434.647 32.3236 433.488 32.5116 432.73 33.2701C432.263 33.7374 431.629 34 430.968 34H430.072C429.052 34 428.061 34.3346 427.25 34.9524L419.405 40.9294C418.494 41.6239 417.379 42 416.233 42H413.71C412.213 42 411 43.2133 411 44.7101C411 45.5262 410.632 46.2988 409.999 46.8134L404.377 51.3816C403.506 52.0892 403 53.1515 403 54.2736V54.4966C403 56.4315 401.431 58 399.497 58C398.845 58 398.207 58.1817 397.653 58.5246ZM234.158 23.8423C233.771 24.2288 233.697 24.8288 233.979 25.2975C234.441 26.0687 235.559 26.0687 236.021 25.2975C236.303 24.8288 236.229 24.2288 235.842 23.8423C235.377 23.3771 234.623 23.3771 234.158 23.8423ZM231.319 50.8858L231.598 50.6766C232.088 50.3092 232.786 50.4287 233.126 50.9383C233.354 51.2813 233.365 51.7254 233.153 52.0789L232.973 52.3778C232.532 53.1126 231.468 53.1126 231.027 52.3778C230.727 51.8791 230.854 51.2348 231.319 50.8858ZM210.626 52.5769L209.252 54.4654C208.859 55.007 209.045 55.7726 209.644 56.0721C210.133 56.3166 210.728 56.1587 211.031 55.704L212.326 53.761C212.439 53.5908 212.5 53.3908 212.5 53.1863C212.5 52.1828 211.216 51.7653 210.626 52.5769ZM212.947 80.6634L213.923 83.2006C214.572 84.8871 216.192 86 217.999 86H225.25C226.037 86 226.785 86.3795 227.257 87.009C227.72 87.6273 228.455 88 229.228 88C230.026 88 230.774 87.6124 231.234 86.9606L236.163 79.9779C236.385 79.6628 236.671 79.3975 237.002 79.199L237.385 78.9688C238.319 78.4087 238.715 77.2586 238.324 76.2425L237.418 73.886C237.066 72.9713 235.795 72.9099 235.357 73.7865C235.143 74.2141 234.683 74.4603 234.208 74.401L232.689 74.2111C231.63 74.0787 230.572 74.4682 229.851 75.256L227.667 77.6447C226.831 78.5592 225.345 78.3891 224.737 77.3092C224.309 76.5491 223.402 76.1992 222.575 76.4751L218.872 77.7092C218.351 77.8829 218 78.3704 218 78.9196C218 80.0564 216.626 80.6256 215.822 79.8219L215.2 79.1997C214.782 78.7819 214.143 78.6783 213.615 78.9426C212.983 79.2587 212.694 80.0035 212.947 80.6634ZM171 93L169.855 96.4348C169.648 97.0572 169.9 97.7401 170.463 98.0777C171.244 98.5462 171.376 99.6237 170.732 100.268L170.541 100.459C169.951 101.049 169.909 101.99 170.442 102.631L171.751 104.201C171.916 104.399 172.111 104.57 172.33 104.706L174.214 105.884C174.996 106.373 174.94 107.53 174.115 107.942C174.039 107.981 173.958 108.01 173.875 108.031C173.022 108.244 172.7 109.287 173.284 109.945L175.145 112.038C175.689 112.65 176.469 113 177.287 113H179.096C179.696 113 180.294 113.078 180.873 113.233L186.199 114.653C186.985 114.863 187.82 114.574 188.308 113.923C188.736 113.352 188.827 112.596 188.546 111.94L187.918 110.475C187.665 109.886 187.797 109.203 188.25 108.75C188.703 108.297 189.386 108.165 189.975 108.418L190.636 108.701C191.734 109.172 193.012 108.842 193.745 107.899L196 105L197.12 103.433C197.904 102.335 199.391 102.009 200.562 102.678C201.441 103.18 202.53 103.133 203.362 102.557L207.54 99.6643C208.073 99.2956 208.212 98.568 207.853 98.0289C207.632 97.6985 207.261 97.5 206.864 97.5H200.454C199.18 97.5 197.934 97.1228 196.874 96.416L195.885 95.7569C194.708 94.9717 194 93.6497 194 92.234V89.9078C194 88.8541 194.854 88 195.908 88C196.83 88 197.62 88.6594 197.785 89.5665L198.115 91.3803C198.356 92.708 199.233 93.8331 200.461 94.3915L202.477 95.3077C203.456 95.7527 204.567 95.811 205.587 95.471C207.327 94.8911 208.5 93.2632 208.5 91.4295V89.1623C208.5 88.3925 208.376 87.6277 208.132 86.8974C207.158 83.9727 204.421 82 201.338 82H200.651C199.252 82 197.888 82.437 196.75 83.25C195.612 84.063 194.248 84.5 192.849 84.5H191.424C190.815 84.5 190.213 84.3697 189.659 84.1178L188.069 83.395C186.472 82.6691 184.608 83.5687 184.182 85.2704C184.063 85.7484 184.071 86.2494 184.207 86.7231L184.905 89.1688C184.968 89.3878 185.07 89.5934 185.207 89.7756L186.231 91.1411C186.87 91.9937 186.143 93.1905 185.091 93.0152C185.031 93.0051 184.971 92.9902 184.912 92.9707L179 91L176.687 90.0086C174.271 88.9734 171.515 90.4231 171 93ZM164.612 103.112L165.841 104.341C166.268 104.768 166.536 105.327 166.603 105.926L167.255 111.794C167.366 112.792 166.372 113.549 165.439 113.176C165.155 113.062 164.919 112.854 164.77 112.587L163.14 109.652C162.715 108.887 162.393 108.07 162.18 107.221L161.582 104.827C161.528 104.611 161.514 104.386 161.542 104.165C161.728 102.673 163.549 102.049 164.612 103.112ZM42.8759 263.875L45.6092 262.964C46.4398 262.687 47 261.909 47 261.034C47 259.911 47.9106 259 49.034 259H52.5C54.433 259 56 257.433 56 255.5V250.151C56 248.801 56.6518 247.534 57.75 246.75C58.8482 245.966 59.5 244.699 59.5 243.349V242.507C59.5 240.621 60.4148 238.852 61.954 237.762L68.8978 232.843C70.53 231.687 71.5 229.811 71.5 227.811V227.678C71.5 225.424 70.2265 223.363 68.2104 222.355C66.5075 221.504 65.3148 219.889 65.0018 218.011L64.0923 212.553C63.7095 210.257 62.5372 208.166 60.7776 206.641L58.5855 204.741C56.9095 203.288 55.764 201.32 55.329 199.145L54.1558 193.279C54.0521 192.76 53.9067 192.251 53.7211 191.756L53.1311 190.183C52.7228 189.094 52.7006 187.898 53.0684 186.795C53.6445 185.067 55.1025 183.78 56.8889 183.422L57.1951 183.361C59.6545 182.869 62.0952 184.286 62.8883 186.665L62.9234 186.77C63.2943 187.883 64.0687 188.816 65.0939 189.386L65.8909 189.828C67.1542 190.53 68.7231 190.357 69.8033 189.397L71.0482 188.29C71.8359 187.59 71.8717 186.372 71.1265 185.627C69.9728 184.473 70.7899 182.5 72.4216 182.5H72.9113C73.5914 182.5 74.2266 182.16 74.6039 181.594L75 181C75.6247 180.063 76.6765 179.5 77.8028 179.5H87.3272C89.2566 179.5 91.005 180.636 91.7886 182.399C92.2485 183.434 93.0538 184.277 94.0667 184.783L96.3885 185.944C97.7771 186.639 99.3082 187 100.861 187H106.251C107.732 187 109.194 186.671 110.532 186.037L117.027 182.961C117.668 182.657 118.368 182.5 119.076 182.5C121.358 182.5 123.322 180.89 123.77 178.652L124.648 174.258C124.868 173.16 124.524 172.024 123.732 171.232L123.302 170.802C122.087 169.587 122.23 167.578 123.604 166.547C124.46 165.905 125.604 165.802 126.561 166.28L129.342 167.671C130.432 168.216 131.635 168.5 132.854 168.5H137.449C138.674 168.5 139.761 167.716 140.149 166.554C140.626 165.121 142.14 164.311 143.597 164.708L145.076 165.112C146.001 165.364 146.82 165.907 147.412 166.661L150.512 170.606C151.476 171.833 152 173.348 152 174.908V179.096C152 179.341 152.146 179.563 152.371 179.659C153.06 179.954 152.716 180.992 151.987 180.817L148.851 180.064C148.048 179.872 147.442 180.784 147.93 181.449L151.773 186.691C151.924 186.896 152.098 187.083 152.292 187.248L162 195.5L170.485 201.439C171.486 202.141 172.608 202.652 173.794 202.949L176.145 203.536C178.502 204.125 180.989 203.314 182.544 201.447L183.285 200.558C184.339 199.293 184.603 197.547 183.969 196.027L183.015 193.735C182.719 193.026 182.988 192.207 183.648 191.811C184.39 191.366 184.623 190.397 184.164 189.663L182.77 187.432C182.594 187.15 182.5 186.823 182.5 186.49C182.5 184.952 184.322 184.14 185.466 185.169L186.77 186.343C187.24 186.766 187.85 187 188.482 187H193.048C196.059 187 198.5 184.559 198.5 181.548C198.5 180.228 198.979 178.952 199.849 177.958L200.085 177.688C201.302 176.298 203.06 175.5 204.908 175.5H206.672C208.483 175.5 210.219 176.219 211.5 177.5L212.568 178.568C213.165 179.165 213.974 179.5 214.818 179.5C216.575 179.5 218 178.075 218 176.318V173.656C218 172.953 217.586 172.316 216.944 172.031L215.787 171.516C214.875 171.111 214.846 169.827 215.739 169.381C216.193 169.153 216.742 169.242 217.102 169.602L217.223 169.723C217.681 170.181 218.389 170.271 218.947 169.943L221.292 168.564C223.982 166.981 224.546 163.329 222.458 161.008L222.381 160.924C222.128 160.642 221.907 160.333 221.723 160.002L220 156.9C219.672 156.31 219.5 155.646 219.5 154.971V152.394C219.5 151.624 218.876 151 218.106 151C216.726 151 216.184 149.211 217.332 148.445L218.663 147.558C219.186 147.209 219.5 146.623 219.5 145.994V144.616C219.5 142.619 221.119 141 223.116 141C223.697 141 224.269 140.86 224.784 140.592L232.185 136.744C234.151 135.722 236.5 137.148 236.5 139.363C236.5 140.382 237.024 141.328 237.888 141.867L238.028 141.955C239.386 142.804 241.176 142.373 242 141L242.787 144.149C243.224 145.894 244.615 147.239 246.374 147.616C248.723 148.119 251.075 146.776 251.835 144.496L252.616 142.151C252.87 141.389 253 140.59 253 139.787V137.624C253 135.59 253.62 133.604 254.778 131.932L256.661 129.211C257.202 128.43 258.008 127.873 258.929 127.643L260.229 127.318C262.572 126.732 264.671 128.902 264.007 131.225C263.694 132.32 264.006 133.506 264.812 134.312C265.808 135.308 267.349 135.537 268.585 134.863L269.738 134.234C271.155 133.461 272.861 133.43 274.304 134.152L275 134.5L277.231 135.616C277.737 135.868 278.294 136 278.859 136H279.75C281.269 136 282.5 134.769 282.5 133.25V132.25C282.5 131.284 283.284 130.5 284.25 130.5C285.216 130.5 286 131.284 286 132.25V133.009C286 134.569 287.409 135.751 288.945 135.48L292.793 134.801C293.906 134.605 294.938 134.086 295.76 133.31L302.932 126.537C303.31 126.18 303.66 125.793 303.978 125.381L310.516 116.921C311.491 115.659 312.754 114.648 314.2 113.973L322.904 109.911C325.508 108.696 328.509 108.66 331.141 109.812L332.474 110.395C334.127 111.118 335.554 112.275 336.603 113.744L337.143 114.5C337.38 114.833 337.592 115.184 337.775 115.55L338.653 117.306C339.98 119.959 343.156 121.138 345.91 120.036C347.53 119.388 349.378 119.527 350.873 120.424L351.787 120.972C352.854 121.612 354.174 121.663 355.287 121.107L357.464 120.018C358.494 119.503 358.759 118.153 358.001 117.287C357.111 116.269 357.654 114.669 358.98 114.404L359.698 114.26C360.498 114.1 361.32 114.4 361.83 115.037L365 119L366 120.4C368.177 123.448 367.362 127.696 364.212 129.721C363.413 130.234 362.736 130.915 362.227 131.715L359.5 136L354.93 142.679C353.679 144.508 353.071 146.7 353.201 148.913L353.388 152.091C353.462 153.352 353.774 154.588 354.309 155.733L356.094 159.558C356.685 160.825 357.631 161.895 358.818 162.636L359.196 162.873C360.363 163.602 361.745 163.907 363.11 163.736L364.276 163.591C366.891 163.264 369.281 165.107 369.629 167.719L369.788 168.909C369.919 169.892 370.57 170.728 371.49 171.096L372.129 171.352C373.546 171.918 373.998 173.703 373.021 174.875C372.684 175.279 372.5 175.788 372.5 176.313V176.563C372.5 178.185 371.185 179.5 369.563 179.5H367.488C366.114 179.5 365 180.614 365 181.988C365 183.162 364.18 184.176 363.033 184.421L359.336 185.214C358.453 185.403 357.614 185.757 356.863 186.258L356.633 186.411C353.814 188.291 352.358 191.65 352.915 194.993L353.251 197.009C353.414 197.986 353.317 198.988 352.969 199.916C352.358 201.546 352.534 203.368 353.447 204.851L354.664 206.83C355.495 208.179 355.569 209.862 354.86 211.279C354.036 212.928 354.28 214.91 355.48 216.309L356.064 216.992C358.023 219.277 357.961 222.667 355.919 224.879L353.5 227.5L349.692 232.45C349.013 233.334 347.779 233.567 346.824 232.994C345.361 232.117 343.5 233.17 343.5 234.876V235.616C343.5 236.741 342.78 237.74 341.713 238.096L337.986 239.338C337.664 239.445 337.327 239.5 336.987 239.5C334.951 239.5 333.447 241.399 333.913 243.382L334.525 245.979C334.83 247.278 334.632 248.644 333.97 249.802L333.928 249.876C333.326 250.929 332.393 251.753 331.274 252.219L330.864 252.39C328.495 253.377 326.885 255.615 326.702 258.175L326.588 259.774C326.53 260.576 326.256 261.348 325.795 262.007L324.579 263.744C323.731 264.955 324.107 266.633 325.391 267.366C326.088 267.764 326.552 268.472 326.641 269.27L326.86 271.244C326.953 272.074 327.205 272.877 327.605 273.609L330 278L332.322 281.87C332.772 282.62 333.122 283.426 333.362 284.267L334.781 289.232C334.926 289.742 335 290.269 335 290.799V291.5C335 294.261 332.761 296.5 330 296.5H326C324.343 296.5 323 297.843 323 299.5C323 301.157 321.657 302.5 320 302.5H319H317.344C315.834 302.5 314.377 301.946 313.248 300.943L312.841 300.581C311.399 299.299 309.37 298.911 307.557 299.57C305.953 300.153 304.733 301.479 304.284 303.124L304.003 304.156C303.673 305.365 303.66 306.639 303.964 307.855L304.701 310.806C304.9 311.599 305 312.413 305 313.231V317.226C305 319.353 304.322 321.425 303.064 323.14L301.436 325.36C300.178 327.075 299.5 329.147 299.5 331.274V333.492C299.5 335.763 300.273 337.966 301.691 339.739L302.025 340.157C302.995 341.369 303.669 342.79 303.995 344.308L304.809 348.109C304.935 348.697 305.18 349.252 305.53 349.741L305.766 350.072C306.787 351.502 306.715 353.442 305.59 354.792C305.202 355.258 304.929 355.807 304.793 356.398L304.58 357.321C303.917 360.192 301.7 362.45 298.841 363.165L297.5 363.5L294.986 364.08C292.653 364.619 291 366.696 291 369.091V369.297C291 370.693 290.38 372.017 289.308 372.91C288.463 373.614 287.398 374 286.297 374H283.412C281.51 374 279.648 374.542 278.043 375.563L277.719 375.77C275.951 376.895 274.581 378.547 273.803 380.492L272.916 382.71C272.327 384.183 272.309 385.823 272.866 387.309L274.248 390.993C274.669 392.116 274.133 393.372 273.03 393.844C272.121 394.234 271.575 395.172 271.684 396.155L271.833 397.496C271.939 398.447 271.606 399.394 270.93 400.07C269.823 401.177 269.698 402.931 270.638 404.184L271.505 405.34C271.833 405.777 272.232 406.155 272.686 406.457L272.793 406.528C274.172 407.448 275 408.996 275 410.653V411.25C275 412.643 274.26 413.932 273.057 414.634L272.092 415.196C270.482 416.135 270.117 418.303 271.329 419.718C271.764 420.225 272.356 420.571 273.01 420.702L275.887 421.277C277.988 421.698 279.5 423.542 279.5 425.685C279.5 426.224 279.403 426.759 279.214 427.263L278.637 428.802C278.216 429.925 278 431.114 278 432.313V436.003C278 436.332 278.053 436.659 278.157 436.971C278.818 438.953 277.342 441 275.253 441H273.634C272.583 441 271.569 441.392 270.791 442.099L266.5 446L265.838 446.772C264.354 448.503 262.187 449.5 259.907 449.5C259.304 449.5 258.704 449.57 258.117 449.708L252.172 451.107C251.065 451.367 250.011 451.814 249.055 452.429L245.971 454.412C244.358 455.449 242.48 456 240.563 456H239.731C238.913 456 238.099 455.9 237.306 455.701L234.746 455.061C233.328 454.707 231.826 455.024 230.673 455.921C229.073 457.166 226.86 457.259 225.161 456.155L220.491 453.119C218.917 452.096 216.963 451.846 215.182 452.439L213.434 453.022C212.54 453.32 211.556 453.145 210.82 452.556C210.009 451.907 208.904 451.765 207.956 452.186L207.168 452.537C205.899 453.1 204.41 452.713 203.577 451.602L203.506 451.508C202.646 450.361 201.066 450.034 199.821 450.745C198.996 451.217 197.989 451.245 197.139 450.82L195.724 450.112C194.919 449.71 194.031 449.5 193.131 449.5H186.607C185.607 449.5 184.678 450.015 184.148 450.863C183.257 452.288 181.344 452.66 179.985 451.671L178.279 450.43C177.475 449.846 177 448.912 177 447.919C177 446.743 176.336 445.668 175.284 445.142L174.5 444.75C172.968 443.984 172 442.418 172 440.705V438.435C172 437.162 171.704 435.908 171.135 434.77L169.762 432.024C169.262 431.023 168.524 430.16 167.613 429.51C166.252 428.537 165.292 427.1 164.916 425.469L164.373 423.117C164.127 422.049 163.677 421.039 163.049 420.141L162.441 419.274C161.225 417.535 159.236 416.5 157.114 416.5H156.401C155.49 416.5 154.603 416.788 153.867 417.324C151.63 418.951 148.462 418.079 147.373 415.537L146.5 413.5L145.913 412.208C144.699 409.538 142.375 407.536 139.556 406.73L138.347 406.385C137.453 406.129 136.529 406 135.599 406H132.425C131.481 406 130.544 406.152 129.648 406.451C126.759 407.414 124.575 409.805 123.878 412.769L123.433 414.659C123.153 415.852 122.48 416.916 121.523 417.682C120.85 418.22 120.314 418.909 119.958 419.693L118 424L115.14 430.197C115.048 430.397 115 430.614 115 430.834C115 432.187 113.364 432.864 112.407 431.907L110.047 429.547C109.131 428.631 107.719 428.434 106.587 429.063L105.531 429.65C104.586 430.174 104 431.17 104 432.251C104 434.316 101.948 435.754 100.007 435.048L99.7734 434.963C98.9605 434.667 98.0618 434.719 97.2881 435.106L95.509 435.996C94.8567 436.322 94.338 436.864 94.0418 437.531C93.2412 439.332 90.9995 439.961 89.3787 438.839L87.9671 437.862C86.7351 437.009 86 435.606 86 434.107V430.5V425.623C86 424.548 86.1733 423.48 86.5132 422.461L87.9868 418.039C88.3267 417.02 88.5 415.952 88.5 414.877V408.662C88.5 408.224 88.5707 407.788 88.7094 407.372L89.3526 405.442C89.9171 403.749 88.6567 402 86.8717 402C86.3059 402 85.7553 401.816 85.3026 401.477L83.5518 400.164C82.5313 399.398 81.703 398.406 81.1325 397.265L80.5894 396.179C79.6066 394.213 79.7523 391.871 80.9714 390.043L81.291 389.564C81.7533 388.87 82 388.055 82 387.222V385.235C82 384.001 80.9993 383 79.765 383C78.0685 383 76.9905 381.184 77.8029 379.695L78.2898 378.802C78.7347 377.986 78.7522 377.004 78.3367 376.173L76 371.5L73.2982 366.482C72.7855 365.53 71.9287 364.81 70.9028 364.468C69.1693 363.89 68 362.267 68 360.44V360.361C68 359.475 67.7298 358.61 67.2255 357.881L66.3192 356.572C64.5536 354.022 61.6491 352.5 58.5471 352.5H56H50H47.9566C46.5098 352.5 45.6682 350.865 46.5091 349.687C46.8198 349.252 46.9184 348.701 46.7778 348.185L46.383 346.738C45.85 344.783 46.5642 342.702 48.1847 341.486L48.5054 341.246C49.1595 340.755 49.6904 340.119 50.056 339.388L50.681 338.138C51.6745 336.151 50.8196 333.736 48.7971 332.817C47.6667 332.303 46.8466 331.284 46.5864 330.07L45.7631 326.228C45.5957 325.446 45.1036 324.773 44.4099 324.377C43.0743 323.614 42.6009 321.918 43.348 320.574L43.6002 320.12C44.1598 319.112 44.1598 317.888 43.6002 316.88L41.3052 312.749C40.2794 310.903 40.8147 308.58 42.5452 307.368C43.7545 306.522 44.4191 305.094 44.2878 303.623L42.153 279.713C42.0517 278.579 41.7576 277.471 41.2833 276.436L39.3002 272.11C37.8051 268.848 39.4716 265.009 42.8759 263.875ZM202.993 118.49L203.599 119.399C203.861 119.791 204 120.251 204 120.723C204 121.521 203.601 122.266 202.937 122.709L202.607 122.928C201.65 123.567 200.39 123.512 199.492 122.793C198.865 122.292 198.5 121.533 198.5 120.73V119.85C198.5 118.755 199.226 117.793 200.279 117.492C201.304 117.199 202.401 117.602 202.993 118.49ZM206.5 128.319V126C206.5 123.573 207.946 121.38 210.177 120.424L210.799 120.157C212.529 119.416 214.481 119.393 216.228 120.091L219.815 121.526C220.578 121.831 221.203 122.406 221.571 123.142L222.13 124.26C222.989 125.978 221.739 128 219.818 128C219.607 128 219.396 128.026 219.191 128.077L213.5 129.5L208.251 131.25C207.764 131.412 207.346 131.732 207.061 132.159L206.194 133.458C205.835 133.997 205.073 134.073 204.615 133.615C204.26 133.26 204.214 132.701 204.505 132.293L205.814 130.461C206.26 129.836 206.5 129.087 206.5 128.319ZM332.203 256.485L330.805 263.475C330.604 264.482 330.604 265.518 330.805 266.525L331.834 271.671C332.266 273.83 333.398 275.786 335.055 277.236L339.557 281.175C340.156 281.699 340.5 282.457 340.5 283.253V283.998C340.5 286.014 342.832 287.135 344.406 285.875C345.082 285.334 345.997 285.199 346.801 285.52L353.052 288.021C354.657 288.663 356.067 289.709 357.147 291.059L362.202 297.378C363.042 298.428 363.5 299.733 363.5 301.078V305.051C363.5 306.128 362.628 307 361.551 307C360.266 307 359.333 308.222 359.671 309.461L359.719 309.637C360.099 311.031 361.747 311.627 362.931 310.798L364.592 309.635C365.183 309.222 365.887 309 366.608 309H372.025C373.61 309 375.129 309.63 376.25 310.75L376.964 311.464C377.628 312.128 378 313.027 378 313.964V315.189C378 316.465 379.035 317.5 380.311 317.5C381.057 317.5 381.757 317.14 382.191 316.532L385.317 312.156C386.098 311.063 386.65 309.824 386.942 308.513L387.075 307.911C387.94 304.019 391.034 301.013 394.949 300.26L399.404 299.403C400.736 299.147 401.892 298.328 402.576 297.156L402.936 296.538C404.068 294.598 406.575 293.969 408.488 295.147L409.548 295.799C410.663 296.485 412.114 296.232 412.932 295.21C413.3 294.75 413.5 294.179 413.5 293.59V290.25C413.5 289.56 414.06 289 414.75 289C415.44 289 416 289.56 416 290.25V292.805C416 293.884 416.458 294.912 417.26 295.634L420.268 298.341C420.678 298.711 421.306 298.694 421.696 298.304C421.891 298.109 422 297.845 422 297.57V292.25C422 290.455 423.455 289 425.25 289H427.108C427.877 289 428.5 288.377 428.5 287.608C428.5 286.959 428.052 286.397 427.421 286.251L424.688 285.62C423.018 285.235 421.67 284.009 421.128 282.383L420.013 279.039C419.673 278.02 419.5 276.952 419.5 275.877V249.49C419.5 248.832 419.435 248.175 419.306 247.529L418.56 243.799C418.194 241.97 418.347 240.074 419.002 238.327L419.954 235.79C420.636 233.97 421.835 232.388 423.403 231.238L426.873 228.693C427.896 227.943 428.5 226.751 428.5 225.482V224.848C428.5 222.999 429.999 221.5 431.848 221.5C433.402 221.5 434.751 220.431 435.107 218.919L436.181 214.358C436.368 213.562 437.078 213 437.895 213C438.571 213 439.187 213.387 439.481 213.995L445.162 225.764C445.674 226.825 446.749 227.5 447.928 227.5C449.625 227.5 451 226.125 451 224.428V216.866C451 214.378 450.073 211.98 448.399 210.139L446 207.5L445.182 206.477C444.417 205.521 444 204.333 444 203.108C444 200.455 442.069 198.195 439.448 197.781L435.441 197.149C434.82 197.051 434.225 196.828 433.692 196.495C431.828 195.33 431.027 193.025 431.766 190.955L432.084 190.065C432.652 188.476 432.337 186.704 431.256 185.407C430.76 184.811 430.125 184.346 429.408 184.05L425.152 182.298C423.245 181.513 422 179.654 422 177.591V175.57C422 173.875 420.625 172.5 418.93 172.5C418.323 172.5 417.731 172.679 417.227 173.016L415.75 174C414.283 174.978 412.559 175.5 410.796 175.5H409.343C407.813 175.5 406.314 175.936 405.023 176.758C402.814 178.164 400.06 178.407 397.639 177.41L396.436 176.915C394.242 176.011 391.773 176.045 389.604 177.009L388.948 177.301C388.651 177.433 388.373 177.606 388.123 177.814L387.708 178.16C386.477 179.186 384.655 179.049 383.591 177.852C382.456 176.576 380.482 176.518 379.275 177.725L378.983 178.017C378.354 178.646 378 179.5 378 180.39V180.611C378 182.759 376.259 184.5 374.111 184.5H373.394C372.485 184.5 371.596 184.769 370.84 185.273L368.5 186.833C367.836 187.276 367.121 187.638 366.37 187.911L363.053 189.117C362.359 189.369 361.722 189.778 361.2 190.3C359.865 191.635 359.377 193.632 359.974 195.423C360.316 196.447 360.316 197.553 359.974 198.577L359.699 199.402C359.243 200.772 359.186 202.244 359.536 203.646L359.996 205.483C360.326 206.805 360.312 208.191 359.953 209.506L359.937 209.564C359.342 211.747 359.72 214.081 360.975 215.963L361.553 216.83C361.847 217.271 362.239 217.637 362.699 217.899L362.96 218.048C364.385 218.863 364.926 220.649 364.192 222.117L364.092 222.316C363.719 223.061 363.719 223.939 364.092 224.684C364.827 226.154 364.059 227.932 362.485 228.405L362.134 228.51C361.164 228.801 360.5 229.694 360.5 230.706C360.5 231.973 359.473 233 358.206 233H358C356.619 233 355.5 234.119 355.5 235.5V236.192C355.5 237.314 354.912 238.353 353.95 238.93L351.484 240.41C350.896 240.762 350.149 240.699 349.629 240.253L348.56 239.337C347.947 238.812 347 239.247 347 240.055C347 240.577 346.577 241 346.055 241H343.613C341.894 241 340.5 242.394 340.5 244.113C340.5 244.996 340.875 245.837 341.531 246.428L343.203 247.933C344.515 249.113 344.74 251.086 343.728 252.532L342.859 253.773C342.366 254.478 341.43 254.715 340.66 254.33L338.804 253.402C337.906 252.953 336.953 253.906 337.402 254.804L337.43 254.861C337.476 254.953 337.541 255.034 337.62 255.1C338.245 255.621 337.699 256.625 336.921 256.382L333.946 255.452C333.173 255.21 332.362 255.692 332.203 256.485ZM511.435 137.5H508.105C507.706 137.5 507.311 137.419 506.944 137.262C505.359 136.583 503.532 137.403 502.987 139.039L502.357 140.929C502.122 141.633 501.727 142.273 501.202 142.798L498.459 145.541C497.177 146.823 496.268 148.429 495.828 150.187L495.76 150.462C495.265 152.44 494.178 154.22 492.643 155.562L490.661 157.296C488.415 159.262 485.252 159.801 482.48 158.692C480.57 157.928 478.435 157.936 476.531 158.715L474.034 159.736C471.061 160.952 467.686 159.355 466.742 156.285C466.581 155.765 466.5 155.223 466.5 154.678V152.252C466.5 149.859 464.224 148.121 461.915 148.75C461.315 148.914 460.683 148.921 460.08 148.77L457.878 148.219C456.064 147.766 454.143 148.185 452.684 149.353L452.163 149.77C450.823 150.841 449.016 151.121 447.415 150.506C445.17 149.642 442.631 150.564 441.463 152.667L441.294 152.971C441.099 153.322 440.863 153.65 440.593 153.948L437.019 157.879C436.4 158.56 435.436 158.812 434.562 158.521L433.668 158.223C432.602 157.867 431.5 158.661 431.5 159.786C431.5 160.889 430.436 161.681 429.379 161.364L428.109 160.983C427.128 160.688 426.065 160.99 425.384 161.756L424.972 162.219C423.62 163.74 423.795 166.079 425.359 167.382L426.628 168.44C427.814 169.428 428.5 170.893 428.5 172.437V173.848C428.5 176.734 430.014 179.409 432.489 180.893L433.095 181.257C434.973 182.384 436.403 184.127 437.139 186.19L438.227 189.235C438.408 189.741 438.5 190.275 438.5 190.812V192.081C438.5 193.969 440.031 195.5 441.919 195.5C442.922 195.5 443.874 195.94 444.524 196.705L452 205.5L455.593 209.093C456.13 209.63 456.958 209.746 457.621 209.377C458.914 208.659 458.737 206.746 457.333 206.278L455.64 205.713C455.221 205.574 454.847 205.325 454.556 204.992L450.122 199.925C448.754 198.362 448 196.355 448 194.278C448 192.785 448.389 191.318 449.13 190.023L451.433 185.992C451.794 185.36 452.405 184.91 453.116 184.752L454.808 184.376C456.736 183.947 458.078 186.246 456.757 187.715C456.587 187.903 456.454 188.122 456.365 188.36L456.136 188.97C455.435 190.839 455.807 192.941 457.106 194.457L460.068 197.913C460.669 198.614 461 199.508 461 200.432V202.469C461 203.995 462.452 205.104 463.924 204.702C465.284 204.332 466.656 205.251 466.831 206.649L467.377 211.019C467.454 211.632 467.832 212.166 468.384 212.442C469.459 212.979 469.742 214.384 468.96 215.296L467.937 216.49C467.649 216.826 467.437 217.22 467.315 217.646L466.5 220.5L465.07 223.836C464.131 226.027 464.691 228.572 466.463 230.167C467.748 231.323 468.422 233.009 468.29 234.732L467.5 245L468.5 260.5V268.5L467.666 278.094C467.572 279.172 466.669 280 465.587 280C464.434 280 463.5 280.934 463.5 282.087V282.221C463.5 282.725 463.672 283.215 463.987 283.608L464.758 284.572C465.863 285.953 464.879 288 463.11 288H462.833C461.821 288 461 288.821 461 289.833C461 290.545 461.412 291.192 462.058 291.494L464.605 292.682C466.951 293.777 468.378 296.205 468.194 298.788L467.69 305.841C467.565 307.583 467.9 309.328 468.659 310.901L473.763 321.474C474.251 322.484 474.905 323.405 475.698 324.198L496.5 345L514.5 359.5L530.878 374.886C530.959 374.962 531.048 375.029 531.143 375.086C532.18 375.708 533.5 374.961 533.5 373.751V357.091C533.5 355.392 533.067 353.72 532.242 352.235L531.355 350.638C531.118 350.213 530.852 349.806 530.557 349.42L527.825 345.848C525.753 343.139 525.205 339.561 526.371 336.356L528.167 331.416C528.378 330.836 528.837 330.38 529.418 330.172C531.317 329.494 531.229 326.78 529.29 326.226L529.159 326.188C528.731 326.066 528.352 325.811 528.076 325.461L525.137 321.72C523.753 319.958 523 317.782 523 315.541V307.972C523 305.231 524.549 302.726 527 301.5L528.95 300.525C530.206 299.897 531 298.613 531 297.208C531 295.16 529.34 293.5 527.292 293.5H525.952C524.129 293.5 522.447 292.516 521.553 290.927L518.5 285.5L515.114 280.845C514.715 280.296 514.5 279.634 514.5 278.956C514.5 276.764 516.648 275.216 518.727 275.909L519.226 276.075C520.02 276.34 520.895 276.184 521.549 275.661C522.408 274.974 522.708 273.8 522.285 272.784L520.81 269.243C520.606 268.755 520.288 268.323 519.881 267.985L517.116 265.68C516.077 264.814 514.5 265.553 514.5 266.905C514.5 267.786 513.786 268.5 512.905 268.5H512.297C511.782 268.5 511.283 268.319 510.887 267.99L508.413 265.927C506.567 264.389 505.5 262.111 505.5 259.709V259.606C505.5 259.203 505.465 258.8 505.395 258.403L504.596 253.88C504.282 252.099 502.459 251.014 500.744 251.585L497.711 252.596C496.608 252.964 496.41 254.44 497.378 255.085C497.766 255.344 498 255.781 498 256.248V256.567C498 257.826 496.849 258.77 495.615 258.523L492.859 257.972C491.393 257.679 490.185 256.645 489.668 255.243L487.617 249.674C487.209 248.567 487 247.396 487 246.216V239.454C487 236.914 486.033 234.469 484.295 232.615L482.143 230.319C480.515 228.582 479.969 226.092 480.722 223.834L481.877 220.37C482.477 218.569 484.506 217.684 486.234 218.47L487.144 218.884C487.942 219.246 488.883 219.021 489.43 218.337C490.039 217.576 489.978 216.478 489.289 215.789L488.107 214.607C487.398 213.898 487 212.937 487 211.934V204.386C487 204.131 487.052 203.879 487.152 203.645C487.736 202.282 489.595 202.1 490.432 203.324L494.547 209.337C494.83 209.752 495.301 210 495.803 210C496.866 210 497.602 208.938 497.229 207.943L495.457 203.219C495.157 202.42 495.066 201.557 495.193 200.712L496.045 195.035C496.336 193.093 497.394 191.35 498.982 190.195L500.298 189.238C501.367 188.46 502 187.218 502 185.895C502 184.157 503.087 182.605 504.721 182.011L505.62 181.683C506.835 181.242 508.165 181.242 509.38 181.683L517.466 184.624C518.097 184.853 518.803 184.697 519.278 184.222C519.953 183.547 519.953 182.453 519.278 181.778L516.596 179.096C516.202 178.702 515.887 178.237 515.668 177.725L515.018 176.21C514.705 175.479 514.869 174.631 515.431 174.069C515.795 173.705 516 173.21 516 172.695V165.785C516 165.262 515.959 164.741 515.878 164.225L514.662 156.524C514.555 155.851 514.287 155.215 513.878 154.671L512.704 153.106C512.029 152.206 512.178 150.935 513.042 150.215C513.871 149.524 514.046 148.319 513.447 147.421L512.924 146.636C512.114 145.421 512.35 143.791 513.472 142.857C514.123 142.314 514.5 141.51 514.5 140.662V140.565C514.5 138.872 513.128 137.5 511.435 137.5ZM339.215 297.096L339.438 298.066C339.771 299.507 339.109 300.995 337.816 301.713L337.354 301.97C336.194 302.615 334.79 302.645 333.603 302.051L330.842 300.671C330.617 300.558 330.369 300.5 330.118 300.5C329.224 300.5 328.5 301.224 328.5 302.118V302.75C328.5 303.993 327.493 305 326.25 305H325.798C324.978 305 324.202 305.373 323.689 306.014L323.632 306.085C322.94 306.95 321.814 307.344 320.733 307.098L311.802 305.069C311.601 305.023 311.396 305 311.19 305H310.967C308.963 305 307.696 307.153 308.669 308.905C308.886 309.295 309 309.734 309 310.181V315.5V320.777C309 322.2 308.434 323.566 307.428 324.572C306.818 325.182 306.364 325.929 306.105 326.751L304.156 332.922C303.778 334.119 304.327 335.413 305.449 335.975C306.116 336.308 306.604 336.916 306.785 337.639L308.51 344.541C308.833 345.834 309.412 347.049 310.212 348.116L312.825 351.6C313.263 352.184 313.5 352.895 313.5 353.625V354.332C313.5 355.806 312.306 357 310.832 357C309.728 357 308.739 357.68 308.342 358.71L306.833 362.634C306.612 363.209 306.327 363.759 305.985 364.272L305.838 364.493C304.377 366.684 301.918 368 299.285 368H297.002C296.053 368 295.155 368.431 294.562 369.173C293.9 370 293.702 371.107 294.038 372.113L294.164 372.491C294.881 374.644 293.596 376.948 291.387 377.468L287.815 378.308C287.273 378.436 286.719 378.5 286.163 378.5H284.408C282.855 378.5 281.356 379.063 280.188 380.085C278.798 381.302 278 383.06 278 384.908V388.5V395V400.482C278 400.814 277.868 401.132 277.634 401.366L277.053 401.947C276.48 402.52 276.886 403.5 277.697 403.5C277.894 403.5 278.085 403.564 278.243 403.682L279.142 404.356C280.797 405.598 281.327 407.845 280.402 409.696L280.051 410.398C279.689 411.123 279.5 411.922 279.5 412.733V413.163C279.5 415.275 280.448 417.276 282.083 418.613L282.934 419.309C284.241 420.379 285 421.98 285 423.67V424.431C285 424.805 285.087 425.174 285.255 425.509L285.618 426.236C286.253 427.506 285.33 429 283.91 429C282.855 429 282 429.855 282 430.91V437.184C282 438.463 283.037 439.5 284.316 439.5C284.762 439.5 285.199 439.371 285.574 439.128L291.22 435.475C292.708 434.512 294.443 434 296.216 434H297.046C298.32 434 299.566 434.377 300.626 435.084L301.747 435.831C302.842 436.561 303.5 437.791 303.5 439.107V439.399C303.5 440.411 303.04 441.368 302.25 442C301.46 442.632 301 443.589 301 444.601V445.908C301 447.263 300.545 448.579 299.707 449.645L297.103 452.96C296.064 454.282 295.5 455.914 295.5 457.594V459.899C295.5 460.902 295.01 461.843 294.188 462.418L292.695 463.463C291.639 464.202 291.657 465.772 292.729 466.486C293.214 466.809 293.823 466.883 294.37 466.683L295.731 466.189C297.672 465.483 299.848 466.13 301.087 467.783L302.094 469.125C302.979 470.305 304.368 471 305.844 471C306.279 471 306.712 470.939 307.131 470.82L310.045 469.987C312.265 469.353 314.161 467.899 315.349 465.919L316.81 463.484C317.548 462.253 318.878 461.5 320.313 461.5C321.679 461.5 322.955 460.817 323.713 459.681L324.103 459.096C324.366 458.701 324.681 458.341 325.039 458.028L325.433 457.683C327.288 456.06 329.94 455.72 332.145 456.822C334.201 457.851 335.5 459.952 335.5 462.251V465V467.5C335.5 468.328 336.172 469 337 469C337.828 469 338.5 469.672 338.5 470.5V473.797C338.5 475.193 337.88 476.517 336.808 477.41C335.963 478.114 334.898 478.5 333.797 478.5H326.927C326.65 478.5 326.38 478.59 326.158 478.756C325.396 479.328 325.502 480.501 326.354 480.927L327.394 481.447C328.072 481.786 328.5 482.479 328.5 483.236V483.847C328.5 485.133 327.677 486.274 326.457 486.681L325.5 487C323.708 487.597 322.5 489.274 322.5 491.162V491.565C322.5 493.1 321.787 494.549 320.57 495.485L317.376 497.941C316.509 498.609 316 499.642 316 500.737V501.784C316 502.235 316.212 502.659 316.573 502.929C317.305 503.479 317.34 504.565 316.645 505.161L315.443 506.191C314.845 506.705 314.5 507.454 314.5 508.242V510.004C314.5 512.188 315.591 514.228 317.409 515.439L318.409 516.106C318.802 516.368 319.216 516.598 319.646 516.794L320.845 517.338C323.19 518.405 325.034 520.336 325.991 522.728L328.366 528.666C328.454 528.885 328.597 529.078 328.781 529.225C329.675 529.94 331 529.304 331 528.159V527.285C331 526.299 331.799 525.5 332.785 525.5H336.176C336.687 525.5 337.161 525.768 337.424 526.206C337.945 527.075 339.174 527.158 339.807 526.366L339.999 526.126C340.316 525.73 340.795 525.5 341.302 525.5H344.858C346.126 525.5 347.24 526.341 347.589 527.56C347.846 528.461 348.532 529.177 349.421 529.474L351.113 530.038C352.935 530.645 354.934 530.377 356.532 529.312L356.779 529.147C357.901 528.399 359.22 528 360.568 528H362.117C362.372 528 362.626 527.975 362.875 527.925C365.268 527.446 367.5 529.276 367.5 531.716V533V534.926C367.5 536.515 368.361 537.979 369.75 538.75C371.139 539.521 372 540.985 372 542.574V544.719C372 545.561 371.804 546.392 371.427 547.146L369.65 550.701C369.291 551.418 369.582 552.291 370.299 552.65C371.156 553.078 372.185 552.574 372.373 551.635L372.829 549.357C372.941 548.796 373.201 548.274 373.581 547.846L374.263 547.079C375.915 545.22 378.534 544.558 380.872 545.408C381.936 545.795 383.087 545.876 384.195 545.643L387.836 544.877C390.263 544.366 392 542.225 392 539.745V538.665C392 536.365 393.865 534.5 396.165 534.5H396.233C397.057 534.5 397.86 534.243 398.531 533.764L399.684 532.94C400.46 532.386 400.767 531.379 400.432 530.486C399.956 529.215 398.42 528.72 397.291 529.473L396.93 529.714C395.847 530.435 394.389 530.186 393.609 529.145L392.163 527.217C392.054 527.073 391.936 526.936 391.808 526.808C390.479 525.479 390.314 523.38 391.42 521.86L393.5 519L395.192 516.251C396.591 513.978 399.215 512.764 401.853 513.17C403.248 513.384 404.538 514.038 405.536 515.036L407.723 517.223C408.221 517.721 408.5 518.395 408.5 519.098V521.433C408.5 522.934 410.315 523.685 411.376 522.624C411.767 522.233 411.941 521.675 411.842 521.132L411.215 517.681C411.072 516.898 411.042 516.098 411.126 515.306L411.85 508.425C411.949 507.48 411.914 506.525 411.744 505.59L410 496L408.995 490.637C408.674 488.93 407.781 487.384 406.463 486.254C405.503 485.431 404.762 484.382 404.308 483.202L402.898 479.535C402.633 478.847 402.294 478.191 401.885 477.578L398.72 472.829C397.943 471.664 397.694 470.226 398.033 468.867C398.334 467.666 398.175 466.396 397.588 465.305L396.403 463.105C395.491 461.412 395.14 459.474 395.4 457.569L396.053 452.775C396.308 450.911 395.118 449.155 393.294 448.698C391.652 448.288 390.5 446.813 390.5 445.12V444.981C390.5 443.224 389.316 441.688 387.617 441.241L381.902 439.737C381.335 439.588 380.871 439.179 380.653 438.634C380.287 437.718 380.702 436.676 381.597 436.263L385.938 434.259C386.281 434.101 386.5 433.758 386.5 433.381C386.5 432.71 385.833 432.243 385.202 432.472L381.933 433.661C381.324 433.882 380.664 433.925 380.031 433.785L373.611 432.358C372.67 432.149 372 431.314 372 430.35C372 429.106 370.904 428.146 369.671 428.311L366.877 428.683C365.39 428.881 364.098 429.803 363.428 431.145L363.322 431.356C362.792 432.417 362.658 433.633 362.946 434.784L364.078 439.311C364.352 440.409 364.274 441.565 363.854 442.616L363.652 443.12C362.956 444.859 361.271 446 359.398 446C358.183 446 357.017 446.483 356.158 447.342L354.828 448.672C354.298 449.202 353.579 449.5 352.828 449.5H351.75C350.784 449.5 350 448.716 350 447.75C350 446.784 349.216 446 348.25 446H347.904C347.335 446 346.799 446.268 346.458 446.723C345.911 447.453 344.906 447.661 344.114 447.208L343.002 446.573C342.354 446.202 341.852 445.62 341.582 444.924L339.154 438.681C338.76 437.668 337.784 437 336.696 437C335.936 437 335.213 437.328 334.712 437.9L333.75 439C332.638 440.271 331.031 441 329.342 441H326.529C325.24 441 324.013 440.443 323.164 439.473C321.876 438.002 321.694 435.864 322.713 434.196L325.033 430.401C325.992 428.831 326.5 427.026 326.5 425.186V423.268C326.5 421.775 326.834 420.301 327.479 418.954L331.483 410.581C331.826 409.863 332.083 409.106 332.247 408.327L334 400L335.5 386L337.976 376.098C338.3 374.8 339.293 373.774 340.579 373.406L340.779 373.349C341.563 373.125 342.234 372.611 342.654 371.911C343.185 371.025 343.259 369.938 342.852 368.988L341.716 366.339C340.929 364.5 340.786 362.45 341.313 360.521L341.631 359.354C341.876 358.456 342.251 357.599 342.744 356.81C343.881 354.99 344.371 352.84 344.134 350.706L343.892 348.527C343.638 346.245 344.178 343.946 345.419 342.015L346.872 339.755C347.616 338.598 348.591 337.606 349.736 336.842L351.284 335.811C352.088 335.275 352.788 334.597 353.349 333.811C354.417 332.316 355.968 331.236 357.74 330.753L357.953 330.695C359.613 330.242 361.098 329.302 362.218 327.996L365.265 324.441C366.017 323.563 367.213 323.204 368.325 323.522L368.404 323.544C369.389 323.825 370.449 323.551 371.174 322.826L371.482 322.518C371.814 322.186 372 321.737 372 321.268V320.964C372 320.156 372.656 319.5 373.464 319.5H373.721C374.931 319.5 375.537 318.037 374.681 317.181C374.561 317.061 374.42 316.965 374.265 316.897L368.113 314.206C367.14 313.78 366.006 313.994 365.255 314.745C364.772 315.228 364.116 315.5 363.432 315.5H360.847C358.796 315.5 356.921 314.341 356.003 312.506C355.361 311.222 355.255 309.734 355.709 308.372L356.987 304.539C357.327 303.52 357.5 302.452 357.5 301.377V300.901C357.5 298.696 356.771 296.552 355.426 294.804L353.502 292.303C352.844 291.448 351.984 290.771 350.998 290.332L350.099 289.933C348.78 289.346 347.259 289.423 346.005 290.14L345.451 290.456C344.839 290.806 344.377 291.37 344.154 292.039L344.076 292.271C343.732 293.304 342.766 294 341.678 294C340.052 294 338.849 295.512 339.215 297.096ZM389.202 409.193L388.739 411.045C388.302 412.793 389.08 414.617 390.644 415.511L391.136 415.792C391.378 415.93 391.608 416.09 391.822 416.269L393.277 417.481C394.052 418.127 394.5 419.083 394.5 420.092V420.468C394.5 421.129 394.763 421.763 395.23 422.23L395.646 422.646C396.156 423.156 396.282 423.935 395.96 424.58C395.472 425.555 394.198 425.813 393.37 425.103L393.25 425C392.361 424.238 390.993 424.514 390.469 425.562L390.166 426.167C389.76 426.98 389.863 427.954 390.431 428.663L391.5 430L393.482 431.982C394.157 432.657 394.732 433.426 395.19 434.264L396.757 437.137C397.244 438.031 397.5 439.034 397.5 440.053V441.761C397.5 442.84 398.066 443.84 398.991 444.395C399.641 444.784 400.123 445.401 400.346 446.125L400.924 448.002C401.609 450.228 403.208 452.058 405.323 453.034L408.5 454.5L410.987 455.951C413.162 457.22 414.5 459.549 414.5 462.067C414.5 463.945 415.246 465.746 416.574 467.074L416.921 467.421C417.306 467.806 417.652 468.228 417.954 468.681L423.5 477L427.109 484.219C427.695 485.39 428 486.682 428 487.992C428 491.079 429.71 493.933 432.42 495.411C433.133 495.8 433.791 496.291 434.365 496.865L436.138 498.638C437.65 500.15 438.5 502.202 438.5 504.341C438.5 506.666 439.504 508.878 441.254 510.41L441.518 510.64C442.169 511.21 442.733 511.873 443.192 512.607L443.48 513.068C444.473 514.657 445 516.494 445 518.368V518.639C445 520.192 445.361 521.723 446.056 523.111L447.097 525.194C447.693 526.386 448.521 527.447 449.533 528.314L451.5 530C452.099 530.599 453.111 530.057 452.945 529.227L452.5 527L451.5 522.5L450.532 519.596C450.194 518.583 450.316 517.473 450.866 516.557C451.277 515.871 451.902 515.339 452.644 515.042L453.452 514.719C455.36 513.956 457.522 514.181 459.231 515.321L459.939 515.793C460.642 516.261 461.264 516.84 461.783 517.506L464.43 520.91C464.477 520.97 464.531 521.023 464.591 521.068C465.229 521.547 466.115 520.959 465.921 520.185L464.731 515.425C464.582 514.828 464.225 514.304 463.724 513.946L461.469 512.335C461.161 512.115 460.912 511.823 460.742 511.485L460.267 510.535C459.868 509.736 458.842 509.493 458.127 510.029C457.737 510.323 457.223 510.396 456.766 510.225L455.127 509.61C454.081 509.218 453.222 508.445 452.723 507.446C451.973 505.947 450.441 505 448.765 505H447.743C446.604 505 445.488 504.68 444.522 504.076L444.176 503.86C442.765 502.978 441.688 501.653 441.113 500.092L438.79 493.788C438.597 493.264 438.448 492.724 438.345 492.174L437 485L435.723 481.168C435.28 479.839 435.626 478.374 436.616 477.384C436.871 477.129 437.161 476.913 437.478 476.743L441.039 474.825C442.636 473.965 444.47 473.649 446.262 473.925L447.085 474.052C448.938 474.337 450.577 475.407 451.583 476.988L453.202 479.531C453.388 479.823 453.71 480 454.055 480C454.758 480 455.246 479.302 455.006 478.642L453.977 475.812C453.674 474.977 453.028 474.311 452.203 473.981L445.22 471.188C444.083 470.733 443.039 470.073 442.14 469.241L430 458L421 448.5L414.712 443.26C412.957 441.797 411.756 439.779 411.308 437.539L410.917 435.584C410.642 434.21 410.081 432.909 409.271 431.765L402.95 422.841C402.321 421.953 401.551 421.174 400.671 420.534L397.499 418.226C396.84 417.747 396.284 417.14 395.865 416.441L395.575 415.958C395.199 415.331 395 414.614 395 413.883C395 412.987 394.701 412.116 394.151 411.408L391.973 408.608C391.675 408.224 391.216 408 390.73 408C390.007 408 389.377 408.492 389.202 409.193ZM393.706 523.397L396.099 522.201C397.008 521.746 397.746 521.008 398.201 520.099L399.5 517.5L400.135 516.441C400.537 515.771 401.499 515.749 401.932 516.398C401.942 516.413 401.952 516.429 401.961 516.444C401.97 516.459 401.979 516.474 401.987 516.49C401.999 516.513 402.01 516.536 402.02 516.559C402.028 516.577 402.036 516.596 402.043 516.615L403.302 519.973C403.432 520.318 403.652 520.621 403.939 520.852L404.873 521.599C405.444 522.055 405.43 522.927 404.846 523.366C404.371 523.722 404.257 524.386 404.586 524.88L405.763 526.645C405.918 526.877 406 527.148 406 527.426C406 528.266 406.73 528.919 407.564 528.826L408.25 528.75C409.45 528.617 410.5 529.556 410.5 530.764V533L410.967 544.677C410.989 545.225 410.966 545.773 410.898 546.317L410.096 552.735C410.032 553.244 409.929 553.748 409.788 554.242L408 560.5L404 574.5L402 582L401 588.5L399.741 596.472C399.581 597.484 399.267 598.467 398.808 599.384L395 607L390.556 613.464C389.861 614.475 388.947 615.316 387.881 615.925L387.363 616.221C386.47 616.732 385.459 617 384.43 617H382.064C381.406 617 380.799 617.353 380.472 617.924L379.753 619.181C379.407 619.787 378.545 619.817 378.158 619.236C378.055 619.082 378 618.901 378 618.716V616.536C378 614.982 377.122 613.561 375.732 612.866C374.635 612.318 373.351 612.288 372.231 612.786L371.27 613.213C370.116 613.726 369.142 614.572 368.473 615.643L367.436 617.302C367.151 617.758 367 618.285 367 618.823V621.219C367 621.87 366.389 622.347 365.757 622.189C365.312 622.078 365 621.678 365 621.219V618.36C365 617.169 364.527 616.027 363.685 615.185C362.921 614.421 362.458 613.407 362.381 612.329L362.24 610.355C362.084 608.181 361.208 606.12 359.75 604.5L357.744 602.271C357.582 602.091 357.399 601.928 357.202 601.787C355.535 600.596 355.319 598.181 356.768 596.732C357.245 596.255 357.565 595.645 357.685 594.981L357.772 594.502C358.194 592.185 360.212 590.5 362.568 590.5H365H369.48C370.453 590.5 371.387 590.113 372.075 589.425C372.963 588.537 373.335 587.258 373.063 586.033L372.5 583.5L371.596 581.09C371.241 580.142 371.535 579.072 372.326 578.439C373.041 577.867 373.358 576.93 373.135 576.042L372.769 574.576C372.592 573.868 372.582 573.129 372.741 572.418L373.336 569.736C373.445 569.247 373.5 568.747 373.5 568.246V564.898C373.5 564.348 373.189 563.844 372.696 563.598C372.02 563.26 371.716 562.46 371.997 561.758L372.076 561.56C372.332 560.92 372.952 560.5 373.641 560.5H373.919C374.855 560.5 375.677 559.88 375.934 558.98L376.103 558.389C376.353 557.514 376.179 556.572 375.633 555.844L375.602 555.803C375.211 555.282 375 554.648 375 553.996V553.156C375 552.193 375.68 551.364 376.624 551.175L376.652 551.17C377.192 551.062 377.662 550.731 377.945 550.258L378.386 549.524C378.72 548.966 379.452 548.802 379.993 549.162C380.31 549.373 380.5 549.729 380.5 550.109V551.047C380.5 551.85 381.15 552.5 381.953 552.5C382.578 552.5 383.133 552.1 383.331 551.507L383.496 551.012C383.75 550.251 384.658 549.939 385.326 550.384C385.441 550.461 385.542 550.556 385.625 550.667L386.142 551.356C386.648 552.031 387.544 552.282 388.327 551.969L388.75 551.8C389.203 551.619 389.5 551.18 389.5 550.693C389.5 550.034 390.034 549.5 390.693 549.5H391.849C392.275 549.5 392.693 549.384 393.058 549.165L394.305 548.417C394.767 548.14 395.192 547.808 395.573 547.427L395.698 547.302C396.852 546.148 397.5 544.583 397.5 542.952V542.618C397.5 541.883 397.329 541.158 397 540.5L396.6 539.699C396.534 539.568 396.5 539.424 396.5 539.277V538.736C396.5 538.096 397.275 537.775 397.728 538.228C397.898 538.398 398.142 538.472 398.377 538.424L399.52 538.196C400.155 538.069 400.729 537.733 401.151 537.241L402.414 535.767C403.131 534.93 403.679 533.962 404.028 532.917L404.327 532.018C404.764 530.708 404.76 529.281 404.324 527.971C404.11 527.331 403.794 526.725 403.389 526.185L402.831 525.441C402.613 525.151 402.331 524.916 402.007 524.753L401.303 524.402C400.824 524.162 400.244 524.256 399.865 524.635C399.631 524.869 399.314 525 398.984 525H397.081C396.696 525 396.314 524.938 395.949 524.816L393.755 524.085C393.603 524.034 393.5 523.892 393.5 523.731C393.5 523.589 393.58 523.46 393.706 523.397ZM325 544.493V544.944C325 546.124 325.868 547.124 327.036 547.291L327.564 547.366C328.171 547.453 328.735 547.735 329.169 548.169C329.701 548.701 330 549.423 330 550.175V550.683C330 552.378 331.051 553.894 332.637 554.489L333.17 554.689C333.719 554.895 334.3 555 334.886 555H337.687C338.886 555 340.075 554.784 341.198 554.363L342.591 553.841C343.19 553.616 343.734 553.266 344.187 552.813L345.22 551.78C345.399 551.601 345.643 551.5 345.896 551.5C346.479 551.5 346.926 550.984 346.844 550.408L346.624 548.871C346.544 548.31 346.674 547.739 346.988 547.268L348.5 545L350.999 542.084C351.333 541.695 351.695 541.333 352.084 540.999L355 538.5L358.139 534.969C358.547 534.51 358.352 533.784 357.77 533.59C357.595 533.532 357.405 533.532 357.23 533.59L354.956 534.348C353.673 534.776 352.302 534.873 350.972 534.631L349.852 534.428C348.335 534.152 346.97 533.337 346.007 532.133L345.766 531.833C345.589 531.612 345.385 531.414 345.159 531.244L344.794 530.971C344.001 530.376 342.94 530.28 342.053 530.724C341.689 530.905 341.288 531 340.882 531H338.5H337.275C336.615 531 336.121 531.603 336.25 532.25C336.379 532.897 335.885 533.5 335.225 533.5H334.627C334.543 533.5 334.458 533.507 334.375 533.521L332.692 533.801C331.979 533.92 331.42 534.479 331.301 535.192L331.241 535.556C331.111 536.334 330.345 536.836 329.58 536.645C329.211 536.553 328.818 536.621 328.501 536.832C327.931 537.213 327.73 537.961 328.037 538.574L328.181 538.861C328.385 539.27 328.419 539.744 328.274 540.177L327.834 541.497C327.628 542.117 327.105 542.579 326.464 542.707C325.613 542.877 325 543.625 325 544.493ZM186.153 455.467L187.136 454.853C188.027 454.295 189.057 454 190.108 454H192.576C193.792 454 194.942 454.553 195.702 455.503L195.869 455.711C196.279 456.224 196.84 456.597 197.472 456.778L198.892 457.183C199.535 457.367 200.216 457.067 200.515 456.469C200.8 455.9 201.436 455.597 202.058 455.735L204.926 456.372C205.304 456.456 205.657 456.626 205.959 456.867L206.685 457.448C207.405 458.024 208.458 457.89 209.01 457.153C209.319 456.742 209.802 456.5 210.316 456.5H214.796C215.262 456.5 215.726 456.425 216.168 456.277C217.615 455.795 219.208 456.107 220.366 457.1L221.637 458.189C221.879 458.396 222.105 458.62 222.315 458.86L223.545 460.265C224.711 461.598 226.602 462.028 228.229 461.33L228.53 461.201C228.84 461.068 229.174 461 229.511 461H231.045C231.572 461 232 460.572 232 460.045C232 459.335 232.747 458.874 233.382 459.191L233.818 459.409C233.938 459.469 234.049 459.549 234.144 459.644L235.144 460.644C235.372 460.872 235.681 461 236.003 461C236.583 461 237.082 460.591 237.195 460.023L237.323 459.383C237.426 458.87 237.877 458.5 238.401 458.5C239.008 458.5 239.5 458.992 239.5 459.599V459.75C239.5 460.44 240.06 461 240.75 461H244.587C245.132 461 245.616 460.651 245.789 460.134C245.921 459.737 246.24 459.431 246.642 459.316L248.606 458.755C249.176 458.593 249.651 458.198 249.916 457.668L250.05 457.4C250.326 456.849 250.89 456.5 251.507 456.5C251.828 456.5 252.143 456.595 252.41 456.774L252.548 456.865C253.144 457.263 253.897 457.341 254.562 457.075L255.298 456.781C255.761 456.595 256.182 456.318 256.534 455.966L259.113 453.387C259.361 453.139 259.697 453 260.047 453H260.209C260.682 453 261.101 453.302 261.25 453.75C261.399 454.198 261.818 454.5 262.291 454.5H266.188C267.008 454.5 267.773 454.09 268.228 453.408C268.408 453.139 268.639 452.908 268.908 452.728C269.59 452.273 270 451.508 270 450.688V450.081C270 448.794 270.69 447.606 271.807 446.968L272.401 446.628C273.121 446.216 273.936 446 274.766 446H276.379C277.737 446 279.04 445.46 280 444.5C280.96 443.54 282.263 443 283.621 443H285.111C286.356 443 287.586 442.734 288.719 442.219L291.651 440.886C292.207 440.633 292.687 440.238 293.042 439.741L293.944 438.478C294.533 437.654 295.669 437.446 296.512 438.008C297.345 438.563 297.595 439.675 297.08 440.534L296.713 441.144C296.572 441.38 296.469 441.636 296.407 441.904L295.437 446.106C295.148 447.357 294.622 448.541 293.885 449.592L291.5 453L290.554 454.183C289.894 455.008 289.681 456.104 289.985 457.116L290.509 458.864C290.773 459.742 290.224 460.655 289.326 460.835C288.811 460.938 288.382 461.294 288.187 461.782L287.731 462.924C287.578 463.305 287.488 463.709 287.464 464.12L287.298 466.93C287.131 469.777 289.212 472.26 292.044 472.593L294.208 472.848C294.994 472.941 295.762 472.563 296.169 471.885C296.655 471.076 297.637 470.712 298.532 471.011L298.58 471.027C299.428 471.309 300 472.103 300 472.997V473.67C300 473.889 300.024 474.108 300.072 474.323L300.256 475.154C300.691 477.109 302.425 478.5 304.428 478.5C304.808 478.5 305.186 478.449 305.552 478.349L309.529 477.265C310.102 477.108 310.5 476.588 310.5 475.994C310.5 475.406 310.89 474.889 311.456 474.727L313.285 474.204C313.757 474.069 314.199 473.845 314.587 473.543L317.142 471.557C318.039 470.859 318.79 469.992 319.354 469.006L320.292 467.364C320.428 467.126 320.5 466.855 320.5 466.58V466.214C320.5 465.543 321.043 465 321.714 465C321.902 465 322.088 465.044 322.256 465.128L322.563 465.282C323.447 465.724 324.503 465.641 325.307 465.066L326.869 463.951C327.265 463.668 327.5 463.211 327.5 462.725V462.603C327.5 461.596 328.517 460.907 329.452 461.281C329.803 461.421 330.084 461.695 330.232 462.042L330.925 463.657C331.302 464.538 331.45 465.5 331.355 466.453L331.188 468.124C331.067 469.33 331.404 470.538 332.131 471.509L332.337 471.782C332.445 471.927 332.571 472.057 332.712 472.17L333.983 473.187C334.486 473.589 334.453 474.365 333.917 474.722C333.656 474.896 333.326 474.93 333.035 474.814L331.807 474.323C331.277 474.111 330.703 474.033 330.136 474.096L323.023 474.886C322.37 474.959 321.776 475.298 321.382 475.824C320.842 476.545 320.755 477.509 321.158 478.315L322.86 481.719C322.951 481.903 323.093 482.056 323.269 482.161L323.818 482.491C324.439 482.863 324.299 483.8 323.597 483.976C323.555 483.986 323.513 483.993 323.47 483.997C323.447 483.999 323.424 484 323.4 484H323.002C321.469 484 320.067 484.866 319.381 486.238L319.226 486.548C319.076 486.848 318.959 487.165 318.877 487.491L318.255 489.978C317.764 491.944 316.674 493.708 315.135 495.027L314.451 495.614C314.152 495.87 313.816 496.079 313.455 496.234C311.741 496.968 310.793 498.818 311.197 500.638L311.444 501.748C311.481 501.916 311.532 502.08 311.596 502.239L311.938 503.095C312.27 503.924 312.004 504.872 311.29 505.408C310.793 505.781 310.5 506.366 310.5 506.987V509.624C310.5 510.185 310.277 510.723 309.88 511.12C309.337 511.663 309.131 512.458 309.342 513.197L309.859 515.006C309.952 515.334 310 515.673 310 516.014V516.434C310 517.682 310.76 518.804 311.918 519.267C312.302 519.421 312.651 519.651 312.943 519.943L314 521L314.049 521.049C314.96 521.96 316.254 522.374 317.523 522.163L317.565 522.156C318.179 522.053 318.809 522.103 319.399 522.3C320.698 522.733 321.666 523.829 321.934 525.172L322 525.5L322.564 527.756C322.847 528.887 323.493 529.895 324.404 530.623L325.003 531.102C325.329 531.363 325.581 531.704 325.736 532.091L325.811 532.278C326.208 533.27 325.826 534.404 324.909 534.954C324.335 535.299 323.952 535.888 323.868 536.552L323.691 537.972C323.566 538.969 323.152 539.906 322.498 540.669L321.805 541.478C320.977 542.444 319.768 543 318.495 543C317.526 543 316.585 542.677 315.82 542.082L313.008 539.895C312.67 539.632 312.313 539.393 311.942 539.181L310.015 538.08C309.36 537.706 308.593 537.581 307.854 537.729L307.754 537.749C306.955 537.909 306.261 538.398 305.842 539.097L305.529 539.618C305.201 540.165 304.61 540.5 303.972 540.5C303.365 540.5 302.798 540.197 302.461 539.691L301.938 538.908C301.371 538.056 300.345 537.631 299.341 537.832C298.796 537.941 298.301 538.227 297.935 538.645L296.733 540.019C295.649 541.258 294.022 541.878 292.389 541.674L292.176 541.647C291.407 541.551 290.68 541.244 290.075 540.76L289.951 540.661C289.034 539.927 288.5 538.816 288.5 537.642C288.5 536.31 287.813 535.071 286.683 534.365L286.018 533.949C285.033 533.333 284.279 532.411 283.872 531.324L283.585 530.56C283.199 529.532 282.598 528.598 281.822 527.822L280.263 526.263C279.764 525.764 279.138 525.409 278.453 525.238C276.717 524.804 275.5 523.245 275.5 521.457V521.326C275.5 520.164 275.003 519.059 274.135 518.287L271.562 516C271.19 515.669 270.767 515.4 270.309 515.204C268.605 514.474 267.5 512.798 267.5 510.944V510.8C267.5 509.344 266.847 507.965 265.72 507.044L262 504L258.489 500.879C257.832 500.295 257.102 499.801 256.317 499.409L251.418 496.959C250.186 496.343 248.765 496.22 247.446 496.616L245.272 497.268C244.793 497.412 244.426 497.797 244.305 498.282C244.131 498.977 243.465 499.433 242.754 499.344L240.77 499.096C240.262 499.033 239.773 498.864 239.335 498.601L238.919 498.351C237.99 497.794 236.928 497.5 235.845 497.5H229.367C228.465 497.5 227.572 497.683 226.743 498.039L225.499 498.572C224.854 498.848 224.328 499.345 224.014 499.972C223.415 501.17 222.09 501.818 220.777 501.555L219.706 501.341C218.61 501.122 217.639 500.494 216.989 499.585L216.001 498.202C215.671 497.739 215.248 497.349 214.761 497.056L214.404 496.843C213.519 496.312 212.933 495.398 212.819 494.372L212.644 492.793C212.561 492.052 213.039 491.365 213.762 491.185C214.225 491.069 214.605 490.737 214.783 490.293L214.913 489.967C215.263 489.092 215.01 488.092 214.286 487.488L213.171 486.559C212.728 486.19 212.367 485.734 212.11 485.219L211.266 483.532C210.759 482.518 210.428 481.425 210.288 480.3L209.742 475.938C209.584 474.668 209.096 473.461 208.328 472.437L207.232 470.976C206.763 470.351 206.065 469.938 205.292 469.827L204.038 469.648C203.429 469.561 202.839 469.902 202.611 470.473L202.518 470.705C202.251 471.372 201.437 471.625 200.839 471.226C200.62 471.08 200.459 470.862 200.383 470.61L199.061 466.202C199.02 466.068 198.968 465.937 198.906 465.812C198.381 464.761 197.182 464.234 196.053 464.556L195.509 464.712C194.855 464.899 194.279 465.295 193.87 465.84L193 467L191.956 468.739C191.685 469.191 191.151 469.413 190.639 469.285L190.509 469.252C189.476 468.994 189.322 467.589 190.275 467.113C190.423 467.038 190.554 466.933 190.657 466.803L191.732 465.46C192.2 464.875 192.285 464.071 191.95 463.4C191.668 462.836 191.128 462.447 190.503 462.358L187.52 461.931C185.787 461.684 184.5 460.2 184.5 458.449C184.5 457.237 185.125 456.11 186.153 455.467ZM157.13 447.022L157.477 444.426C157.784 442.123 159.628 440.329 161.939 440.085L163.232 439.949C165.513 439.709 167.5 441.498 167.5 443.791C167.5 444.879 167.959 445.917 168.764 446.65L172.41 449.964C172.803 450.321 173.225 450.643 173.672 450.928L175.854 452.316C177.477 453.349 178.379 455.207 178.188 457.12C178.067 458.333 178.384 459.549 179.083 460.548L180.728 462.897C181.236 463.623 181.899 464.228 182.669 464.668C184.152 465.516 185.205 466.955 185.563 468.625L186.165 471.438C186.381 472.443 186.964 473.331 187.8 473.929L188.357 474.327C189.355 475.039 190.68 475.092 191.731 474.461C192.233 474.16 192.639 473.722 192.901 473.198L194 471C194.306 470.387 194.933 470 195.618 470C196.434 470 197.149 470.546 197.364 471.333L198.3 474.768C198.431 475.248 198.685 475.685 199.036 476.036L199.347 476.347C200.461 477.461 202.315 477.277 203.189 475.967L203.317 475.774C203.438 475.594 203.596 475.442 203.782 475.331C204.758 474.745 206 475.448 206 476.586V480.544C206 480.847 205.963 481.149 205.889 481.443L205.455 483.182C205.168 484.328 205.433 485.541 206.171 486.463C206.708 487.134 207 487.968 207 488.827V494V496.882C207 497.874 207.56 498.78 208.447 499.224C208.811 499.405 209.212 499.5 209.618 499.5H210.891C211.889 499.5 212.814 500.024 213.328 500.879C213.754 501.591 213.849 502.453 213.587 503.24L213.309 504.072C212.804 505.588 211.571 506.748 210.027 507.159L208.918 507.455C206.5 508.1 204.623 510.007 204.016 512.434L203.98 512.582C203.666 513.837 203.011 514.989 202.096 515.904C201.061 516.939 200.36 518.272 200.098 519.712L199.748 521.637C199.59 522.503 199.816 523.395 200.366 524.082C201.064 524.956 202.186 525.375 203.286 525.175L203.64 525.111C205.53 524.767 207.362 525.95 207.828 527.813L208.11 528.941C208.363 529.954 208.286 531.021 207.888 531.986L205.476 537.844C205.16 538.612 204.941 539.416 204.823 540.237L203.5 549.5L202.391 553.382C201.812 555.409 201.888 557.566 202.608 559.547L203.432 561.812C203.477 561.937 203.534 562.057 203.603 562.172C204.308 563.346 203.706 564.87 202.389 565.246L201.953 565.371C201.654 565.456 201.374 565.598 201.128 565.789L198.081 568.159C197.364 568.717 196.735 569.378 196.215 570.122L195.463 571.195C194.233 572.953 192.222 574 190.076 574H184.108C183.772 574 183.5 573.728 183.5 573.392C183.5 573.153 183.361 572.937 183.143 572.838L179.165 571.03C178.397 570.681 177.564 570.5 176.72 570.5C175.597 570.5 174.497 570.82 173.549 571.424L170.388 573.435C169.808 573.804 169.135 574 168.447 574H167.346C166.533 574 165.802 573.505 165.5 572.75C165.198 571.995 164.467 571.5 163.654 571.5H158.396C157.471 571.5 156.553 571.649 155.675 571.942C153.633 572.622 151.92 574.044 150.875 575.926L145.616 585.391C145.215 586.114 144.605 586.698 143.866 587.067C143.296 587.352 142.669 587.5 142.032 587.5H140.793C139.287 587.5 137.803 587.864 136.467 588.56L127.942 593.009C127.327 593.329 126.817 593.82 126.473 594.422L126.158 594.974C125.485 596.152 124.073 596.691 122.786 596.262C122.273 596.091 121.721 596.07 121.196 596.201L119.574 596.607C118.534 596.867 117.454 596.93 116.391 596.792L102.5 595L97.3422 593.895C96.3114 593.674 95.6364 592.682 95.8097 591.642L95.8376 591.474C95.9379 590.873 95.705 590.264 95.2287 589.883C94.3596 589.188 94.3925 587.855 95.2947 587.204L101.935 582.408C102.29 582.152 102.5 581.741 102.5 581.303C102.5 580.807 102.231 580.351 101.798 580.11L98 578C96.82 577.115 96.3807 575.548 96.9285 574.179L97.6701 572.325C97.888 571.78 98 571.198 98 570.612V569.48C98 568.562 98.4818 567.711 99.2693 567.238C100.036 566.779 100.984 566.742 101.784 567.142L103.747 568.124C104.691 568.595 105.836 568.16 106.228 567.18C106.402 566.744 106.74 566.393 107.17 566.202L110.036 564.929C110.677 564.644 111.347 564.431 112.035 564.293L115.31 563.638C117.331 563.234 119.065 561.95 120.042 560.136L120.96 558.432C121.6 557.242 122.843 556.5 124.194 556.5C125.851 556.5 127.302 555.391 127.738 553.793L127.898 553.206C128.276 551.821 129.297 550.701 130.641 550.197L131.957 549.704C132.318 549.568 132.668 549.404 133.004 549.212L134.886 548.137C135.609 547.724 136.177 547.086 136.505 546.321C137.109 544.913 138.493 544 140.025 544H140.264C141.375 544 142.442 543.558 143.228 542.772L146.245 539.755C146.746 539.254 147.185 538.692 147.55 538.084L147.639 537.935C149.109 535.484 149.226 532.452 147.948 529.895L147.661 529.322C147.227 528.455 146.584 527.709 145.789 527.152L143.693 525.685C142.701 524.991 142.318 523.705 142.767 522.581C142.92 522.199 143.161 521.859 143.471 521.588L147 518.5L149.061 517.126C150.653 516.064 151.908 514.568 152.675 512.814L154.457 508.74C154.808 507.939 155.428 507.286 156.211 506.895C156.73 506.635 157.302 506.5 157.883 506.5H160.171C161.662 506.5 163.092 505.908 164.147 504.853C165.322 503.678 165.917 502.044 165.773 500.389L165.511 497.376C165.196 493.751 162.936 490.582 159.61 489.104L156 487.5C154.402 486.541 153.259 484.976 152.832 483.162L151.857 479.018C151.62 478.012 151.229 477.049 150.698 476.163L147.281 470.468C147.097 470.162 147 469.811 147 469.455C147 468.195 148.166 467.259 149.396 467.532L154.22 468.605C155.329 468.851 156.486 468.514 157.289 467.711C157.753 467.247 158.343 466.931 158.986 466.803L159.525 466.695C161.617 466.277 163.232 464.608 163.583 462.504L163.812 461.131C163.936 460.382 163.941 459.618 163.826 458.867L163.401 456.11C163.16 454.542 161.966 453.293 160.411 452.982C158.945 452.689 157.791 451.559 157.467 450.1L157.214 448.963C157.072 448.326 157.044 447.669 157.13 447.022ZM143.227 465.955L142.483 469.922C142.194 471.465 142.914 473.022 144.277 473.801C145.065 474.251 145.659 474.976 145.945 475.836L150.473 489.418C151.04 491.12 152.88 492.04 154.582 491.473C155.482 491.173 156.468 491.281 157.281 491.769L157.798 492.079C158.262 492.357 158.673 492.717 159.012 493.14L161.65 496.438C162.18 497.1 162.338 497.986 162.07 498.79C161.73 499.811 160.774 500.5 159.698 500.5H158.101C156.763 500.5 155.489 501.068 154.595 502.061L152.146 504.783C151.716 505.26 151.334 505.777 151.004 506.327L148.056 511.24C147.359 512.401 146.434 513.409 145.336 514.202L140.224 517.894C138.827 518.902 138 520.521 138 522.243C138 523.385 138.364 524.496 139.039 525.417L143.244 531.151C143.414 531.383 143.565 531.629 143.693 531.887C144.752 534.004 144.215 536.571 142.397 538.086L140.533 539.639C139.866 540.195 139.024 540.5 138.155 540.5H138.016C136.769 540.5 135.618 541.168 135 542.25C134.382 543.332 133.231 544 131.984 544H131.333C130.782 544 130.236 544.099 129.72 544.293L129.163 544.502C127.442 545.147 126.001 546.373 125.089 547.969L124.807 548.462C124.603 548.819 124.449 549.202 124.35 549.601L123.994 551.025C123.704 552.186 122.661 553 121.464 553C120.842 553 120.24 553.223 119.768 553.628L117.754 555.354C117.258 555.779 116.866 556.312 116.609 556.913L116.485 557.202C115.887 558.596 114.517 559.5 113 559.5H110.318C108.87 559.5 107.517 560.224 106.714 561.429L106.593 561.61C106.206 562.191 105.658 562.646 105.017 562.921L103.614 563.523C102.956 563.805 102.19 563.613 101.743 563.054L101.677 562.971C101.074 562.217 99.9264 562.217 99.323 562.971C98.8516 563.56 98.0173 563.71 97.3704 563.322L97.2697 563.262C96.5482 562.829 95.6164 563.011 95.1116 563.685L93.5488 565.768C93.1866 566.251 92.9246 566.802 92.7781 567.387L92.3252 569.199C92.1111 570.056 92.0898 570.949 92.263 571.815L92.7656 574.328C92.9089 575.044 92.6282 575.779 92.044 576.217C91.4153 576.689 91.1426 577.499 91.3585 578.255L91.8119 579.842C91.9296 580.254 92.2431 580.581 92.6496 580.717L92.7684 580.756C93.7116 581.071 93.9135 582.315 93.1182 582.911C93.0397 582.97 92.9544 583.02 92.8642 583.058L91.1436 583.796C90.1465 584.223 89.5 585.203 89.5 586.288V586.482C89.5 587.873 88.3725 589 86.9818 589C86.0672 589 85.2245 588.504 84.7804 587.705L84.25 586.75C83.4785 585.361 82.0147 584.5 80.4261 584.5H78.588C77.8674 584.5 77.1515 584.616 76.4678 584.844C75.1859 585.271 73.8048 585.301 72.5056 584.93L72.0907 584.812C71.3671 584.605 70.6182 584.5 69.8656 584.5H66.3607C64.8082 584.5 63.2771 584.861 61.8885 585.556L60.9255 586.037C60.3112 586.344 59.6588 586.568 58.9854 586.703L56.6569 587.169C55.6197 587.376 54.7511 588.081 54.3344 589.053C53.8282 590.234 52.6668 591 51.3819 591H48.75C47.9631 591 47.2221 590.63 46.75 590C46.2779 589.37 45.5369 589 44.75 589H42.992C41.3964 589 39.8662 588.366 38.7379 587.238L38.425 586.925C37.4935 585.993 36.8402 584.821 36.5384 583.538L35.0953 577.405C35.032 577.136 35 576.86 35 576.584C35 574.605 33.3954 573 31.416 573H30.8902C30.3035 573 29.7237 572.874 29.1896 572.632L26.063 571.21C25.0329 570.742 23.9146 570.5 22.7831 570.5H21.2678C20.1359 570.5 19.0504 570.05 18.25 569.25C17.4496 568.45 16.3641 568 15.2322 568H10.9528C10.1505 568 9.5 567.35 9.5 566.547C9.5 565.922 9.09984 565.367 8.50658 565.169L2.64387 563.215C1.36357 562.788 0.5 561.59 0.5 560.24C0.5 559.753 0.613328 559.273 0.831009 558.838L3 554.5L3.9856 552.529C4.65338 551.193 5.61179 550.024 6.79046 549.107L8.89506 547.471C9.28714 547.166 9.76967 547 10.2664 547C11.5 547 12.5 548 12.5 549.234V550.142C12.5 551.288 13.1238 552.343 14.1279 552.895L21.745 557.085C22.2474 557.361 22.7251 557.68 23.1728 558.038L26.9482 561.059C27.297 561.338 27.5 561.76 27.5 562.207C27.5 563.134 28.3488 563.83 29.2586 563.648L32.1121 563.078C33.8171 562.737 35.5395 563.579 36.3171 565.134L36.3918 565.284C36.7845 566.069 37.4429 566.69 38.25 567.036C39.615 567.621 40.5 568.963 40.5 570.448V571.466C40.5 572.438 40.9317 573.36 41.6784 573.982L42.4623 574.635C43.0815 575.151 43.962 575.211 44.6455 574.784L45.38 574.325C46.3029 573.748 47.5 574.412 47.5 575.5C47.5 577.468 49.4279 578.857 51.2947 578.235L51.4613 578.18C51.8173 578.061 52.148 577.877 52.4362 577.636L53.979 576.351C54.6387 575.801 55.4784 575.5 56.3372 575.5C58.3478 575.5 60 573.87 60 571.859C60 570.983 60.3164 570.135 60.8911 569.473L83 544L87.5745 539.426C88.8352 538.165 89.7359 536.59 90.1834 534.864L92.2203 527.007C92.7281 525.049 92.6298 522.982 91.9383 521.08L91.6021 520.156C91.2038 519.06 91 517.904 91 516.738V507.453C91 506.191 90.5577 504.969 89.75 504L89.6061 503.827C88.8914 502.97 88.5 501.889 88.5 500.772V498.25C88.5 497.007 89.5074 496 90.75 496C91.9926 496 93 494.993 93 493.75V493.689C93 492.943 92.6396 492.243 92.0323 491.809L90.1998 490.5C89.7352 490.168 89.315 489.778 88.9495 489.339L87 487C86.2507 486.251 86.432 484.992 87.3623 484.484L90.1669 482.954C90.7135 482.656 91.3263 482.5 91.949 482.5H93.3027C94.2896 482.5 95.1393 481.803 95.3329 480.836L95.5197 479.901C95.7388 478.806 97.0401 478.332 97.9122 479.03C98.2818 479.325 98.7699 479.428 99.2273 479.306L104.559 477.884C105.488 477.637 106.294 477.059 106.827 476.259C107.56 475.16 108.793 474.5 110.114 474.5H111H116.047C117.285 474.5 118.458 475.05 119.25 476C120.042 476.95 121.215 477.5 122.453 477.5H127.75C128.537 477.5 129.278 477.87 129.75 478.5L129.8 478.567C130.241 479.154 130.932 479.5 131.667 479.5C132.955 479.5 134 478.455 134 477.167V477C134 475.619 135.119 474.5 136.5 474.5H136.667C137.506 474.5 138.296 474.105 138.8 473.433L139.023 473.136C139.337 472.718 139.55 472.233 139.647 471.719L140.812 465.502C140.921 464.921 141.428 464.5 142.02 464.5C142.789 464.5 143.369 465.199 143.227 465.955Z" fill="url(#paint0_linear_9_7)"/>
<defs>
<linearGradient id="paint0_linear_9_7" x1="508.5" y1="11.5" x2="67.5" y2="577" gradientUnits="userSpaceOnUse">
<stop stop-color="#8CA4BB"/>
<stop offset="1" stop-color="#485158"/>
</linearGradient>
</defs>
</svg>
